<svg width="0" height="0" class="hidden">
  <symbol xmlns="http://www.w3.org/2000/svg" viewBox="0 0 505.021 505.021" id="plane-ticket">
    <path d="M445.004 319.625a39.15 39.15 0 00-.2 3.871c0 20.3 16.471 36.771 36.771 36.771.294 0 .588-.01.871-.021v43.591c0 19.293-15.632 34.935-34.925 34.935H54.934c-19.293 0-34.935-15.642-34.935-34.935v-43.591a36.856 36.856 0 009.62-1.511c15.202-4.522 26.28-18.58 26.28-35.24a36.553 36.553 0 00-8.729-23.773.442.442 0 00-.094-.105c-6.557-7.68-16.24-12.621-27.078-12.873v-37.81c0-19.293 15.642-34.935 34.935-34.935h392.588c19.293 0 34.925 15.642 34.925 34.935v37.81c-.283-.01-.577-.021-.871-.021-18.988.002-34.63 14.406-36.571 32.902z" fill="#0067c5"></path>
    <path d="M482.447 248.936v37.81c-.283-.01-.577-.021-.871-.021-18.989 0-34.631 14.404-36.572 32.9L84.582 423.372c-18.548 5.34-37.894-5.371-43.234-23.909l-11.729-40.727c15.202-4.522 26.28-18.58 26.28-35.24a36.553 36.553 0 00-8.729-23.773.442.442 0 00-.094-.105c-6.557-7.68-16.24-12.621-27.078-12.873v-37.81C19.998 229.642 35.64 214 54.933 214h392.588c19.294.001 34.926 15.643 34.926 34.936z" fill="#0055a3"></path>
    <path d="M437.741 173.605c5.616 19.512 25.994 30.781 45.506 25.165.279-.08.555-.171.831-.262l12.06 41.898c5.337 18.541-5.365 37.894-23.906 43.23L94.961 392.227c-18.541 5.337-37.894-5.365-43.23-23.906l-12.06-41.898c19.002-5.951 29.87-26.011 24.334-45.245S38.6 250.731 19.342 255.793L8.883 219.455c-5.337-18.541 5.365-37.894 23.906-43.23L410.06 67.634c18.541-5.337 37.894 5.365 43.23 23.906l10.459 36.338c-.282.07-.564.14-.843.22-19.512 5.617-30.781 25.995-25.165 45.507z" fill="#d3e1f5"></path>
    <path d="M452.954 90.475c-5.761-17.879-24.713-28.073-42.894-22.84L32.789 176.224c-17.844 5.136-28.421 23.255-24.433 41.138z" fill="#b3ceec"></path>
    <path d="M290.669 101.999l62.172 216.003-257.88 74.226c-18.541 5.337-37.894-5.365-43.23-23.906l-12.06-41.898c19.002-5.951 29.87-26.011 24.334-45.245S38.6 250.732 19.342 255.794L8.883 219.455c-5.337-18.541 5.365-37.894 23.906-43.23z" fill="#b3ceec"></path>
    <path d="M290.669 101.999l-257.88 74.226c-11.259 3.258-21.18 12.614-24.141 24.765a34.741 34.741 0 00-.294 16.363l.002.01 291.567-83.213z" fill="#98bce5"></path>
    <g fill="#d3e1f5">
      <path d="M185.497 257.613l-3.714 64.859 22.737-6.544 17.447-67.693zm-5.355-18.603l-37.626-52.961 22.737-6.544 50.764 48.06z"></path>
      <path d="M109.566 258.204s112.934-39.221 126.37-43.088 28.53 9.694 28.53 9.694-5.575 19.511-19.011 23.378-129.94 30.686-129.94 30.686l-13.972 4.793-18.981-32.475z"></path>
    </g>
    <path d="M331.32 122.399l75.448-21.747 8.404 29.157-75.447 21.747z" fill="#60b7ff"></path>
    <path d="M260.114 283.069l41.342-11.917 16.385 56.844-41.342 11.917z" fill="#fee903"></path>
    <path d="M350.172 378.543h82.811v29.038h-82.811z" fill="#ffefd2"></path>
    <path d="M503.346 238.332l-12.06-41.898c-.963-3.136-5.074-6.762-10.112-4.871-15.513 4.466-31.761-4.522-36.226-20.032-4.464-15.51 4.522-31.76 20.037-36.226 3.304-.73 7.26-4.162 5.972-9.501l-10.46-36.338c-3.135-10.893-10.322-19.912-20.24-25.396-9.918-5.485-21.378-6.777-32.271-3.644L30.715 169.017c-10.893 3.135-19.912 10.324-25.396 20.241-5.484 9.918-6.778 21.378-3.643 32.271l10.459 36.338c.099.343.228.669.369.986v27.888a7.5 7.5 0 007.326 7.498c12.392.288 23.202 8.468 27.057 19.966a28.777 28.777 0 01-9.456 5.06 7.499 7.499 0 00-4.966 9.232l5.098 17.713c-5.008 4.083-11.173 6.378-17.733 6.53a7.5 7.5 0 00-7.326 7.498v43.6c0 23.396 19.035 42.431 42.432 42.431H149.9c4.143 0 7.5-3.358 7.5-7.5s-3.357-7.5-7.5-7.5H54.935c-15.126 0-27.432-12.306-27.432-27.431v-36.874a43.663 43.663 0 0014.442-5.523l2.578 8.954c3.135 10.893 10.322 19.912 20.24 25.396 8.964 4.677 19.948 7.271 32.271 3.643l347.392-99.989a44.01 44.01 0 00-7.114 24.044c0 22.158 16.364 40.566 37.642 43.775v36.573c0 15.125-12.306 27.431-27.431 27.431H185.851c-4.143 0-7.5 3.358-7.5 7.5s3.357 7.5 7.5 7.5h261.672c23.396 0 42.431-19.035 42.431-42.431v-43.6c-.062-3.279-3-7.904-8.371-7.479-16.14 0-29.271-13.13-29.271-29.27s13.131-29.27 29.271-29.27c3.379.218 8.131-1.993 8.371-7.479v-4.246a42.4 42.4 0 009.749-11.892c5.484-9.916 6.778-21.376 3.643-32.269zM27.504 280.033v-17.906c19.813-.744 34.995 18.877 29.083 37.813-6.47-10.221-16.992-17.561-29.083-19.907zm241.779 8.271l26.926-7.75 12.211 42.428-26.925 7.75zm217.293-24.96c-3.686 6.667-9.438 10.668-16.418 13.085l-112.184 32.29c-2.308-13.846-19.755-8.374-14.414 4.149l-20.725 5.965-14.286-49.635a7.5 7.5 0 00-9.281-5.133l-41.341 11.899a7.499 7.499 0 00-5.133 9.282l14.287 49.635-174.194 50.138c-7.044 2.028-14.452 1.191-20.863-2.354s-11.058-9.376-13.085-16.419l-10.2-35.438c18.009-9.116 27.757-30.226 22.923-49.879-5.321-21.631-25.234-34.887-46.972-33.671l-8.6-29.878c-2.026-7.042-1.19-14.451 2.355-20.862 3.545-6.412 9.376-11.059 16.418-13.085l250.674-72.152.83 2.884a7.503 7.503 0 007.203 5.427 7.5 7.5 0 007.211-9.577l-.83-2.882 112.183-32.29c7.043-2.027 14.451-1.191 20.863 2.355 6.411 3.545 11.058 9.376 13.085 16.418l8.516 29.586c-19.56 8.969-30.193 31.185-24.064 52.479 6.129 21.292 26.932 34.46 48.281 31.655l10.116 35.146c2.027 7.041 1.191 14.451-2.355 20.862z"></path>
    <path d="M316.248 163.752l-5.505-19.126a7.5 7.5 0 00-14.414 4.149l5.505 19.126c2.256 8.546 16.505 5.982 14.414-4.149zm15.468 53.737l-5.506-19.126a7.505 7.505 0 00-9.282-5.133 7.5 7.5 0 00-5.132 9.282l5.506 19.126c2.257 8.546 16.506 5.982 14.414-4.149zm9.962 34.611a7.5 7.5 0 00-14.414 4.149l5.505 19.127c2.257 8.546 16.505 5.983 14.414-4.148zm79.996-118.499a7.499 7.499 0 00.644-5.704l-8.393-29.157a7.503 7.503 0 00-9.281-5.133l-75.445 21.715a7.5 7.5 0 00-5.133 9.282l8.392 29.157a7.5 7.5 0 009.281 5.134l75.446-21.716a7.509 7.509 0 004.489-3.578zm-76.877 8.804l-4.243-14.743 61.031-17.566 4.243 14.742zm65.07 105.435l40.307-11.602a7.5 7.5 0 00-4.148-14.415l-40.307 11.602a7.5 7.5 0 004.148 14.415zm43.595-.178l-40.307 11.601a7.5 7.5 0 004.148 14.416l40.307-11.601a7.5 7.5 0 005.133-9.282c-1.147-3.984-5.309-6.28-9.281-5.134zm-309.926 78.014l-56.843 16.361a7.5 7.5 0 004.148 14.415l56.843-16.361a7.5 7.5 0 00-4.148-14.415zm289.446 89.405a7.5 7.5 0 007.5-7.5v-29.038a7.5 7.5 0 00-7.5-7.5h-82.811a7.5 7.5 0 00-7.5 7.5v29.038a7.5 7.5 0 007.5 7.5zm-75.31-29.038h67.811v14.038h-67.811zm-44.223 13.016c4.143 0 7.5-3.358 7.5-7.5s-3.357-7.5-7.5-7.5h-79.732c-4.143 0-7.5 3.358-7.5 7.5s3.357 7.5 7.5 7.5zm-79.587-191.15c-2.964.853-10.535 3.345-20.59 6.729l-42.863-40.579a7.5 7.5 0 00-7.23-1.761l-22.736 6.544c-3.599 1.115-7.312 6.009-4.04 11.551l28.863 40.627a23164.583 23164.583 0 00-56.013 19.355l-24.805-6.44c-5.134-1.43-11.746 4.338-8.36 11.044l18.98 32.475c2.316 2.337 3.624 4.577 8.909 3.31l13.602-4.667c4.106-.946 31.109-7.167 59.565-13.807l-2.848 49.755c.599 3.616 1.617 8.75 9.562 7.636l22.737-6.544a7.5 7.5 0 005.188-5.335l14.731-57.157c10.311-2.478 18.052-4.394 21.015-5.246 16.942-4.876 23.461-26.119 24.148-28.525a7.501 7.501 0 00-2.198-7.64c-1.862-1.675-18.687-16.199-35.617-11.325zm-79.104-17.579l8.451-2.432 33.995 32.184a8732.334 8732.334 0 00-17.146 5.859zm43.569 119.576l-8.451 2.433 2.496-43.611a9746.01 9746.01 0 0017.639-4.153zm45.054-68.925c-3.196.92-12.493 3.2-24.726 6.122l-.021.003a5933.543 5933.543 0 01-17.384 4.123l-1.208.285-.646.152c-37.498 8.831-84.82 19.728-85.563 19.899-.254.059-.505.13-.751.215l-8.162 2.8-6.776-11.593 9.538 2.477a7.497 7.497 0 004.346-.174c.719-.25 46.51-16.148 82.948-28.598l3.341-1.141.198-.068c5.659-1.93 10.767-3.666 15.281-5.192l.013-.005c11.917-4.029 21.006-7.042 24.203-7.962 5.574-1.606 12.789 1.964 17.487 5.085-2.303 5.133-6.494 11.954-12.118 13.572z"></path>
  </symbol>
  <symbol xmlns="http://www.w3.org/2000/svg" viewBox="0 0 512 512" id="route">
    <path d="M285.353 296c-12.5-12.5-2.366-42.889 22.627-67.882s55.385-35.124 67.882-22.627z" fill="#35a872"></path>
    <path d="M328 376c-45.679 0-85.171 19.575-104 48h208c-18.829-28.425-58.321-48-104-48z" fill="#757c80"></path>
    <path d="M414.623 424A275.677 275.677 0 00424 352c0-45.024-10.448-86.574-28.08-120H360c20.234 30.492 32.788 72.991 32.788 120a244.9 244.9 0 01-10.512 72z" fill="#ad6643"></path>
    <path d="M360 424H24v64h336c35.346 0 64-14.327 64-32s-28.654-32-64-32" fill="#3397e8"></path>
    <path d="M360 232c0-17.673 28.654-32 64-32s64 14.327 64 32z" fill="#3dc285"></path>
    <path d="M360 232c-17.673 0-32-28.654-32-64s14.327-64 32-64z" fill="#35a872"></path>
    <path d="M357.491 231.862c-12.5-12.5-2.367-42.889 22.627-67.882S435.5 128.856 448 141.353z" fill="#38b37a"></path>
    <path d="M232 232c0-17.673 28.654-32 64-32s64 14.327 64 32z" fill="#3dc285"></path>
    <circle cx="352" cy="248" fill="#cfdb8c" r="16"></circle>
    <circle cx="384" cy="248" fill="#b1bd70" r="16"></circle>
    <path d="M392 352c-42.165 0-78.62 29.362-96 72h192c-17.38-42.638-53.835-72-96-72z" fill="#7e8589"></path>
    <circle cx="144" cy="104" fill="#ffd33a" r="32"></circle>
    <path d="M328 464a8 8 0 000-16h-64a8 8 0 000 16zm-112-16h-80a8 8 0 000 16h80a8 8 0 000-16zM144 64a40 40 0 1040 40 40.045 40.045 0 00-40-40zm0 64a24 24 0 1124-24 24.028 24.028 0 01-24 24zm8-88V24a8 8 0 00-16 0v16a8 8 0 0016 0zm80 64a8 8 0 00-8-8h-16a8 8 0 000 16h16a8 8 0 008-8zm-80 80v-16a8 8 0 00-16 0v16a8 8 0 0016 0zm-96-80a8 8 0 008 8h16a8 8 0 000-16H64a8 8 0 00-8 8zm48.4-50.912L93.088 41.775a8 8 0 00-11.313 11.313L93.088 64.4A8 8 0 10104.4 53.088zM194.912 64.4l11.313-11.314a8 8 0 00-11.313-11.313L183.6 53.088A8 8 0 00194.912 64.4zm0 101.825a8 8 0 0011.313-11.313L194.912 143.6a8 8 0 10-11.312 11.312zM81.775 154.912a8 8 0 1011.313 11.313l11.312-11.313A8 8 0 1093.088 143.6zM120 272a8.009 8.009 0 018 8 8 8 0 0016 0 8 8 0 0116 0 8 8 0 0016 0 23.988 23.988 0 00-40-17.874A23.988 23.988 0 0096 280a8 8 0 0016 0 8.009 8.009 0 018-8zm-88 56a8 8 0 0016 0 8 8 0 0116 0 8 8 0 0016 0 8 8 0 0116 0 8 8 0 0016 0 23.988 23.988 0 00-40-17.874A23.988 23.988 0 0032 328zm56 120H24a8 8 0 000 16h64a8 8 0 000-16z"></path>
    <path d="M454.156 365.658A107.989 107.989 0 00430.811 352H432c0-40.181-8.012-78.611-23.25-112H488a8 8 0 008-8c0-11.736-8.228-22.313-23.167-29.783C459.655 195.628 442.313 192 424 192a133.936 133.936 0 00-16.323.99l45.98-45.981a8 8 0 000-11.313c-8.3-8.3-21.595-9.96-37.442-4.678-13.976 4.659-28.8 14.356-41.754 27.305q-3.387 3.387-6.461 6.936V104a8 8 0 00-8-8c-11.736 0-22.313 8.228-29.783 23.167C323.628 132.345 320 149.687 320 168a128.6 128.6 0 002.718 26.721A129.142 129.142 0 00296 192c-18.313 0-35.655 3.628-48.833 10.217C232.228 209.687 224 220.264 224 232a8 8 0 008 8h55.535c-17.06 24.332-20.651 48.845-7.839 61.657a8 8 0 0011.313 0l40.764-40.764A23.96 23.96 0 00368 265.869c.36.322.731.631 1.109.932 9.38 23.343 14.707 49.954 15.547 77.49-19.536 1.469-38.352 8.771-54.812 21.367-1 .766-1.988 1.556-2.967 2.357-44.939.3-85.4 18.523-107.032 47.985H24a8 8 0 00-8 8v64a8 8 0 008 8h336c18.313 0 35.655-3.628 48.833-10.217C423.772 478.313 432 467.736 432 456c0-8.968-4.819-17.255-13.752-24H488a8 8 0 007.408-11.02c-9.208-22.58-23.471-41.715-41.252-55.322zM352 115.737v72.989a81.176 81.176 0 00-5.71 14.26c-.485-.257-.957-.519-1.457-.769a76.118 76.118 0 00-4.071-1.872A106.939 106.939 0 01336 168c0-24.545 7.431-44.339 16-52.263zm-22.954 125.256l-41.079 41.078c-.46-10.125 6.01-26.1 19.885-42.071h21.524a23.56 23.56 0 00-.33.993zM243.737 224c7.924-8.569 27.718-16 52.263-16s44.339 7.431 52.263 16zM352 256a8 8 0 118-8 8.009 8.009 0 01-8 8zm63.93 90.978a98.117 98.117 0 00-15.263-2.586 249.179 249.179 0 00-12.7-72.726 23.97 23.97 0 0013.442-7.168 259.817 259.817 0 0114.521 82.48zM360.5 212.632c1.886-12.752 11.441-29.166 25.27-42.995 17.357-17.358 36.594-26.108 48.27-25.642l-57.621 57.625c-.417.2-.842.392-1.252.6a53.186 53.186 0 00-14.667 10.412zM424 208c24.545 0 44.339 7.431 52.263 16H371.737c7.924-8.569 27.718-16 52.263-16zm-40 48a8 8 0 118-8 8.009 8.009 0 01-8 8zm-74.216 129.148A137.934 137.934 0 00290.741 416h-49.752c16.533-16.258 41.331-27.394 68.795-30.852zM360 480H32v-48h328c32.051 0 56 12.671 56 24s-23.949 24-56 24zm-51.493-64a112.675 112.675 0 0131.06-37.636C355.267 366.35 373.4 360 392 360s36.733 6.35 52.433 18.364A112.675 112.675 0 01475.493 416z"></path>
  </symbol>
  <symbol fill="#15616D" xmlns="http://www.w3.org/2000/svg" viewBox="0 -46 417.813 417" id="summer-holidays">
    <path d="M159.988 318.582c-3.988 4.012-9.43 6.25-15.082 6.25s-11.094-2.238-15.082-6.25L9.375 198.113c-12.5-12.5-12.5-32.77 0-45.246l15.082-15.086c12.504-12.5 32.75-12.5 45.25 0l75.2 75.203L348.104 9.781c12.504-12.5 32.77-12.5 45.25 0l15.082 15.086c12.5 12.5 12.5 32.766 0 45.246zm0 0"></path>
  </symbol>
  <symbol xmlns="http://www.w3.org/2000/svg" viewBox="0 0 512 512" id="travel">
    <path d="M502 30.005l-164 73.557-164-73.557-164 73.558v364.432l164-73.557 164 73.557 164-73.557z" fill="#e2e9ee"></path>
    <path d="M54 132.051v267.986l120-53.823V78.228zm284 19.735v267.986l120-53.823V97.963zM174 78.228v267.986l164 73.558V151.786z" fill="#ffcd69"></path>
    <path d="M338 220.995l-56.981-80.953c-19.501-27.706-16.248-65.423 7.709-89.38 27.212-27.212 71.332-27.212 98.544 0 23.957 23.957 27.21 61.674 7.709 89.38z" fill="#ff7d97"></path>
    <circle cx="174" cy="371.294" fill="#33d6f5" r="39.747"></circle>
    <circle cx="338" cy="99.934" fill="#fff" r="20"></circle>
    <path d="M338 131.934c17.645 0 32-14.355 32-32s-14.355-32-32-32-32 14.355-32 32 14.355 32 32 32zm0-44c6.617 0 12 5.383 12 12s-5.383 12-12 12-12-5.383-12-12 5.383-12 12-12z"></path>
    <path d="M507.435 21.612a9.997 9.997 0 00-9.527-.73l-90.186 40.45a79.956 79.956 0 00-13.379-17.741c-31.068-31.067-81.619-31.067-112.687 0a79.982 79.982 0 00-13.378 17.741l-90.185-40.45a10.005 10.005 0 00-8.185 0l-164 73.558A9.996 9.996 0 000 103.563v364.432a10.001 10.001 0 0014.093 9.125l137.252-61.56a49.332 49.332 0 0012.656 4.471v61.964c0 5.523 4.477 10 10 10s10-4.477 10-10v-61.964a49.332 49.332 0 0012.656-4.471l137.251 61.56a10.007 10.007 0 008.184 0l164-73.558a10 10 0 005.908-9.124V30.006a9.998 9.998 0 00-4.565-8.394zM295.799 57.733C307.434 46.097 322.717 40.281 338 40.281s30.566 5.817 42.201 17.453a59.568 59.568 0 016.603 76.553L338 203.621l-48.804-69.335a59.568 59.568 0 016.603-76.553zM20 110.037l154-69.072 86.835 38.947a79.6 79.6 0 00-2.372 25.24l-80.371-36.048a9.998 9.998 0 00-8.185 0l-120 53.823a10 10 0 00-5.908 9.124v267.986a10.001 10.001 0 0014.093 9.124l66.797-29.96a49.495 49.495 0 009.442 22.069L20 452.55zm183.747 261.257c0 16.402-13.344 29.747-29.747 29.747s-29.747-13.344-29.747-29.747 13.344-29.747 29.747-29.747 29.747 13.345 29.747 29.747zM492 387.963l-154 69.072-124.331-55.765a49.5 49.5 0 009.442-22.069l110.797 49.695a10.01 10.01 0 008.184 0l120-53.823a10 10 0 005.908-9.125V294c0-5.523-4.477-10-10-10s-10 4.477-10 10v65.474l-110 49.337-116.479-52.242c-6.292-20.264-25.215-35.022-47.521-35.022s-41.229 14.758-47.521 35.021L64 384.592V138.526l110-49.337 90.02 40.376a80.164 80.164 0 008.821 16.234l56.981 80.953a9.999 9.999 0 0016.354 0l56.981-80.953a80.138 80.138 0 008.821-16.234L448 113.408V204c0 5.523 4.477 10 10 10s10-4.477 10-10V97.963a10.001 10.001 0 00-14.092-9.124l-36.371 16.313a79.6 79.6 0 00-2.372-25.24L492 45.45z"></path>
    <path d="M458 239c-2.63 0-5.21 1.07-7.07 2.93S448 246.37 448 249s1.07 5.21 2.93 7.07S455.37 259 458 259s5.21-1.07 7.07-2.93S468 251.63 468 249s-1.07-5.21-2.93-7.07S460.63 239 458 239zm-285.852 31.129c-5.457.852-9.189 5.966-8.337 11.423.126.805.189 1.626.189 2.442 0 5.523 4.477 10 10 10s10-4.477 10-10c0-1.846-.144-3.706-.429-5.528-.852-5.456-5.964-9.192-11.423-8.337zm105.011-1.745l-5.946-4.905c-4.259-3.514-10.563-2.909-14.078 1.35-3.515 4.26-2.91 10.563 1.35 14.078l5.946 4.905a9.96 9.96 0 006.358 2.287 9.979 9.979 0 007.719-3.637c3.516-4.261 2.911-10.564-1.349-14.078zm-62.986-83.395c-3.119-4.557-9.342-5.723-13.9-2.604-4.558 3.12-5.724 9.343-2.604 13.9l4.354 6.361a9.99 9.99 0 008.261 4.353 9.954 9.954 0 005.639-1.749c4.558-3.12 5.724-9.343 2.604-13.9zm28.297 41.345c-3.12-4.557-9.343-5.722-13.9-2.604-4.558 3.12-5.724 9.343-2.604 13.9l4.354 6.361a9.99 9.99 0 008.261 4.353 9.951 9.951 0 005.639-1.749c4.558-3.12 5.724-9.343 2.604-13.9zm69.376 61.73a19.56 19.56 0 01-5.066.28c-5.515-.427-10.313 3.698-10.736 9.205s3.699 10.313 9.205 10.736a39.384 39.384 0 0010.282-.564c5.428-1.017 9.004-6.243 7.987-11.671-1.018-5.429-6.244-9.003-11.672-7.986zM184.3 149.716a53.142 53.142 0 00-8.525-4.164c-5.161-1.97-10.94.616-12.909 5.775-1.97 5.16.616 10.939 5.775 12.909a33.02 33.02 0 015.307 2.592 9.993 9.993 0 0013.732-3.38c2.859-4.725 1.345-10.873-3.38-13.732zm-34.334 93.168l-.667-.417a53.947 53.947 0 01-4.775-3.356c-4.34-3.417-10.627-2.668-14.043 1.671-3.417 4.339-2.668 10.626 1.671 14.043a74.138 74.138 0 006.548 4.604l.667.417a9.996 9.996 0 0013.78-3.181c2.927-4.685 1.502-10.855-3.181-13.781zm-25.587-39.677c-.655-5.484-5.635-9.399-11.115-8.744-5.484.655-9.399 5.631-8.744 11.115a74.42 74.42 0 001.588 8.766c1.116 4.568 5.205 7.629 9.707 7.629.786 0 1.584-.093 2.381-.288 5.365-1.311 8.652-6.723 7.341-12.088a53.82 53.82 0 01-1.158-6.39zm13.319-34.953c4.484-3.224 5.506-9.473 2.282-13.957-3.225-4.485-9.473-5.506-13.957-2.282a53.018 53.018 0 00-7.176 6.209c-3.836 3.974-3.724 10.304.25 14.14a9.963 9.963 0 006.944 2.805 9.97 9.97 0 007.196-3.055 32.913 32.913 0 014.461-3.86zM338 253.495c-5.523 0-10 4.477-10 10v4c0 5.523 4.477 10 10 10s10-4.477 10-10v-4c0-5.523-4.477-10-10-10z"></path>
  </symbol>
  <symbol xmlns="http://www.w3.org/2000/svg" viewBox="0 0 512.002 512.002" id="travel2">
    <path d="M184.095 203.957s14.435 48.209 2.935 95.459l2.13 3.651c21.773-22.484 45.437-62.39 1.934-106.248l-1.188-.403-5.81 1.892v5.649zm15.185-17.791s48.75 22.5 81 73l4.038 3.056c.731-36.036-11.068-88.843-86.745-87.887l-1.606 1.268-1.021 5.013zM114.835 14.395l-1.194 5.771s53.616 74.442 46.067 139.399l1.572 1.851 6.333-3.583 1.06-1.817c39.092-88.07-12.292-125.869-53.838-141.621zm-78.809 89.771s55.42 8.923 89.754 39.795c2.179 1.959 4.219 3.79 6.132 5.505l10.368-3.216 1.717-1.859c-30.156-62.202-75.825-57.6-107.971-43.58zm41.198 67c-29.056 4.667-40.861 51.917-40.861 51.917l1.693 2.66c30.213-28.65 60.109-39.855 81.263-44.089l1.127-1.957-.561-10.459c-7.234-.686-22.326-1.338-42.661 1.928z" fill="#00f4a8"></path>
    <path d="M39.356 102.804c-1.462-.269-2.572-1.017-3.33-1.994-8.971 3.913-16.89 8.558-23.123 12.691-4.556 3.02-2.331 10.077 3.135 9.987 50.672-.833 85.356 15.099 105.451 28.501h2.291l10.467-3.247c-17.559-16.678-47.721-37.255-94.891-45.938zm124.465 56.333c.961-29.866-4.977-84.52-48.986-144.742-7.737-2.934-15.134-5.104-21.541-6.69-6.339-1.57-10.752 6.091-6.257 10.828 47.667 50.243 59.132 99.799 61.492 127.176l1.208 2.123 11.542 13.583 2.828-1.6z" fill="#00e49d"></path>
    <path d="M315.961 174.322s-35.181-40.156-74.431-37.906c-26.62 1.526-47.476 16.577-58.151 26.11l9.915 6.702 2.672.377c25.584-6.252 67.65-9.799 119.996 10.386v-5.669z" fill="#00f4a8"></path>
    <path d="M185.961 164.272c58.623-48.434 105.282-13.327 130 15.72.483.186.96.36 1.445.55 5.615 2.204 10.641-4.23 7.099-9.112-22.506-31.015-78.271-87.495-150.224-15.985l1.416 1.888zm8.804 17.24l-2.235 10.975.627 1.975c21.025 10.366 55.119 33.918 79.855 84.264 2.411 4.906 9.706 3.672 10.319-1.76.569-5.046.991-10.894 1.016-17.184-30.205-47.967-66.795-69.165-89.582-78.27zM38.056 225.743c9.229-27.623 31.199-64.215 81.962-54.027l-.699-13.035-1.204-1.879c-61.602-14.807-82.552 37.469-89.234 65.191-1.155 4.789 4.645 8.082 8.198 4.669.326-.311.652-.611.977-.919zm151.193 75.416c11.439-47.626 2.317-82.85-6.103-102.541l-9.553 3.111-2.495 2.064c7.356 20.044 14.708 55.933.486 103.219-1.419 4.718 4.155 8.38 7.892 5.17a145.76 145.76 0 009.685-9.113 5.023 5.023 0 01.088-1.91z" fill="#00e49d"></path>
    <path d="M497.204 379.097a37.84 37.84 0 01-19.295 5.254c-10.548 0-20.091-4.294-26.98-11.228a10.483 10.483 0 00-14.897 0c-6.89 6.934-16.432 11.228-26.98 11.228s-20.091-4.294-26.98-11.228a10.483 10.483 0 00-14.897 0c-6.89 6.934-16.432 11.228-26.98 11.228s-20.091-4.294-26.98-11.228a10.483 10.483 0 00-14.098-.727v8.02l38.869 69.5H499.24l5.815-13.513v-52.877c.001-4.031-4.379-6.478-7.851-4.429z" fill="#60b9fe"></path>
    <path d="M298.316 373.123c-6.89 6.934-16.432 11.228-26.98 11.228-1.188 0-2.361-.062-3.521-.168v1.983l48.236 60.438 4.586 3.312h33.797c-14-29.103-32.811-55.25-55.319-77.52-.275.226-.542.468-.799.727z" fill="#1ca8ff"></path>
    <path d="M477.909 447.803c-10.548 0-20.091-4.294-26.98-11.228a10.483 10.483 0 00-14.897 0c-6.89 6.934-16.432 11.228-26.98 11.228s-20.091-4.294-26.98-11.228a10.483 10.483 0 00-14.897 0 38.003 38.003 0 01-16.404 9.726l16.1 54.287 7.257 3.912h117.614c7.354 0 13.315-5.961 13.315-13.315v-54.781c-6.905 7.032-16.515 11.399-27.148 11.399z" fill="#8bcaff"></path>
    <path d="M371.919 496.508a278.587 278.587 0 00-19.51-50.721 37.944 37.944 0 01-12.215 2.016c-10.548 0-20.091-4.294-26.98-11.228-.381-.383-.79-.719-1.21-1.031V437l26.777 63.542 4.223 3.958h31.124z" fill="#60b9fe"></path>
    <path d="M425.076 219.755c-16.755 7.533-28.432 24.353-28.432 43.915s11.676 36.381 28.432 43.915c18.451-6.07 31.778-23.431 31.778-43.915s-13.327-37.844-31.778-43.915z" fill="#ffc365"></path>
    <path d="M397.866 263.67c0-19.628 12.238-36.387 29.494-43.095a46.099 46.099 0 00-16.739-3.138c-25.533 0-46.232 20.699-46.232 46.233s20.699 46.233 46.232 46.233a46.078 46.078 0 0016.739-3.138c-17.257-6.708-29.494-23.467-29.494-43.095z" fill="#ffa90f"></path>
    <path d="M119.913 322.004l-17.466 9.861-28.421-2.109-4.259-6.285a249.008 249.008 0 00-29.988 5.804v164.224c0 4.907 2.987 9.146 7.231 11h295.992C315.334 404.385 226.92 329.502 119.913 322.004z" fill="#ffdda8"></path>
    <path d="M41.78 493.499V328.758a247.704 247.704 0 00-24.845 7.564 13.481 13.481 0 00-8.881 12.669v50.428l6.06 5.08.667 62.333-6.726 10.763v13.438c0 7.437 6.029 13.465 13.466 13.465h27.491c-4.245-1.854-7.232-6.092-7.232-10.999z" fill="#ffc365"></path>
    <path d="M152.78 186.166l-4.455.905-4.327 16.888-63.673 122.757-67.045 93.95-5.226 13.903v43.027c103.218-97.632 141.991-222.031 154.686-276.367v-3.187z" fill="#dd8858"></path>
    <path d="M152.597 186.203l-14.942 3.036-3.124 2.721C124.09 228.568 93.147 309.301 8.054 399.419v35.149C105.769 326.3 140.616 231.857 152.597 186.203z" fill="#cb6c35"></path>
    <path d="M183.577 157.453c-10.98 5.376-16.567 18.168-12.593 30.085 2.186 6.556 6.853 11.578 12.602 14.399 6.088-2.65 11.071-7.773 13.337-14.568 4.011-12.026-1.927-24.969-13.346-29.916z" fill="#938493"></path>
    <path d="M171.266 187.369c-3.95-11.844 1.748-24.578 12.829-29.687a24.468 24.468 0 00-2.508-.997c-6.843-2.282-13.982-1.34-19.779 1.996l-1.59 1.735-8.6 27.083v1.74c2.634 6.147 7.779 11.186 14.622 13.468 6.104 2.036 12.443 1.503 17.855-1.002-5.856-2.71-10.627-7.731-12.829-14.336z" fill="#7b6c79"></path>
    <path d="M148.609 145.743c-5.571 2.957-10.062 7.97-12.215 14.426-3.994 11.976 1.411 24.816 12.208 30.538 6.352-2.572 11.582-7.799 13.92-14.809 4.078-12.225-2.124-25.397-13.913-30.155z" fill="#938493"></path>
    <path d="M137.029 160.55c2.192-6.575 6.931-11.58 12.75-14.299a24.693 24.693 0 00-2.594-1.039c-12.708-4.238-26.447 2.629-30.684 15.337-4.238 12.708 2.628 26.446 15.337 30.684a24.166 24.166 0 0017.934-1.039c-11.023-5.133-16.682-17.831-12.743-29.644z" fill="#7b6c79"></path>
    <path d="M492.839 372.637c-11.632 6.863-27.007 5.401-37.144-4.801-7.055-7.1-18.483-7.099-25.538 0-11.952 12.029-31.368 12.028-43.319 0-7.055-7.1-18.483-7.099-25.538 0-11.952 12.029-31.369 12.028-43.32 0-7.055-7.1-18.482-7.099-25.537 0-5.882 5.92-13.788 9.158-22.181 9.001-38.557-33.433-86.939-55.396-139.585-61.324 17.876-38.996 29.007-74.138 35.743-100.135 5.898 20.755 8.955 51.142-2.574 89.472-1.607 5.346.451 10.978 5.122 14.016 4.653 3.028 10.618 2.629 14.839-.996 31.532-27.084 49.743-63.184 31.209-100.376 17.167 13.505 35.65 33.889 50.709 64.54 5.696 11.589 23.052 8.641 24.504-4.228 5.294-46.959-8.198-90.783-53.776-105.603 21.735-.102 47.976 3.666 77.657 15.319 5.665 2.224 11.96.485 15.67-4.309 3.7-4.781 3.797-11.288.24-16.19-39.594-54.56-92.885-72.619-146.682-30.172C205.512 64.474 165.554 18.009 94.543.425 88.446-1.084 82.234 1.542 79.08 6.958c-3.165 5.437-2.377 12.164 1.963 16.738 31.944 33.67 46.989 67.047 54 92.682-33.341-42.713-81.6-39.12-126.837-9.128-4.838 3.206-6.935 9.079-5.217 14.613 1.701 5.482 6.665 9.126 12.396 9.126l.223-.002c34.386-.555 61.044 6.852 80.541 15.785-41.7.586-65.412 33.232-75.111 73.464-1.304 5.408 1.057 10.898 5.874 13.663 4.834 2.774 10.786 2.039 14.811-1.827 27.549-26.463 54.792-37.521 74.087-42.092a31.397 31.397 0 008.951 6.651c-8.459 27.271-25.645 69.758-59.798 119.875-17.447 2.497-34.637 6.771-51.141 12.766C5.554 332.274 0 340.199 0 348.991v142.042c0 11.561 9.405 20.966 20.966 20.966h136.509c4.143 0 7.5-3.357 7.5-7.5s-3.357-7.5-7.5-7.5H20.966A5.972 5.972 0 0115 491.033V480.81c41.329-39.617 78.953-89.923 108.869-150.92 96.92 8.828 178.986 75.215 208.507 167.108H192.475c-4.143 0-7.5 3.357-7.5 7.5s3.357 7.5 7.5 7.5h298.713c11.478 0 20.814-9.337 20.814-20.814V383.526c0-9.932-10.79-15.835-19.163-10.889zm-312.196-72.209c9.71-38.014 6.178-68.541.015-89.835a31.998 31.998 0 009.052-3.691c27.992 31.803 21.133 63.939-9.067 93.526zm95.313-31.354c-22.252-42.101-50.704-65.188-73.073-77.679 1.252-3.155 2.016-6.872 2.156-9.446 52.186 2.245 74.401 34.53 70.917 87.125zm38.856-97.337c-29.316-10.856-55.484-14.542-77.501-14.542-14.692 0-27.539 1.642-38.235 3.888a31.77 31.77 0 00-10.394-9.195l-.02-.012c45.825-38.884 89.478-27.614 126.15 19.861zm-125.556 13.26c-4.741 14.212-22.489 13.686-28.216 6.05 7.289-7.048 10.951-17.468 9.288-27.825 12.513-2.308 22.95 9.712 18.928 21.775zM94.231 15.833c68.305 18.251 98.123 61.985 69.185 132.118a31.661 31.661 0 00-8.39-7.125c-3.063-27.219-15.287-75.86-60.795-124.993zm-56.25 199.299c10.853-35.145 33.156-57.831 69.729-52.599-.868 4.592-.62 9.512.552 13.879-19.227 5.139-44.491 15.987-70.281 38.72zM22.48 115.978c43.743-26.187 82.563-22.869 108.74 21.445a31.745 31.745 0 00-11.028 5.185c-20.517-12.604-52.786-26.021-97.712-26.63zm99.774 51.1c.652-9.227 8.554-16.074 17.629-15.581l.029.001c9.066.51 16.177 8.27 15.784 17.449-.434 9.685-8.98 17.044-18.657 15.922-9.039-1.056-15.4-9.01-14.785-17.791zM15 348.991a6 6 0 013.941-5.62 240.995 240.995 0 0133.673-9.519c-11.545 15.696-24.125 31.183-37.605 46.296l-.009.01zm0 110.678v-57.278c53.382-57.005 101.731-128.383 124.426-202.413 2.516-.036 5.661-.455 8.491-1.289a33.048 33.048 0 005.748 5.918C131.294 295.828 83.531 389.787 15 459.669zm482.002 31.515a5.82 5.82 0 01-5.814 5.814H348.092a257.407 257.407 0 00-17.051-42.502c14.528 2.759 29.848-1.514 40.899-12.636a2.982 2.982 0 014.256 0c17.824 17.937 46.778 17.937 64.602 0a2.984 2.984 0 014.257 0c14.166 14.256 35.188 17.041 51.947 9.013zm0-58.047c-11.854 10.005-29.859 9.673-41.307-1.848-7.055-7.1-18.483-7.099-25.538 0-11.951 12.028-31.369 12.029-43.319 0a17.88 17.88 0 00-12.769-5.32c1 0-6.73-.757-12.77 5.32-11.949 12.025-31.366 12.031-43.317.003a15.667 15.667 0 00-.815-.757 258.42 258.42 0 00-32.969-40.683c7.062-2.165 13.527-6.051 18.885-11.443a2.983 2.983 0 014.256 0c17.824 17.937 46.778 17.937 64.602 0a2.984 2.984 0 014.257 0c17.824 17.937 46.777 17.937 64.601 0a2.984 2.984 0 014.257 0c14.238 14.328 35.208 16.998 51.947 8.99v45.738zm-13.35-161.966h12.249c4.143 0 7.5-3.357 7.5-7.5s-3.357-7.5-7.5-7.5h-12.249c-4.143 0-7.5 3.357-7.5 7.5s3.358 7.5 7.5 7.5z"></path>
    <path d="M336.481 256.171h-12.249c-4.143 0-7.5 3.357-7.5 7.5s3.357 7.5 7.5 7.5h12.249c4.143 0 7.5-3.357 7.5-7.5s-3.357-7.5-7.5-7.5zm130.921-39.23l8.662-8.661a7.498 7.498 0 00.001-10.606 7.5 7.5 0 00-10.606-.001l-8.662 8.661a7.498 7.498 0 00-.001 10.606 7.498 7.498 0 0010.606.001zM354.677 329.668l8.661-8.662a7.498 7.498 0 00-.001-10.606 7.5 7.5 0 00-10.606.001l-8.661 8.662a7.498 7.498 0 00.001 10.606 7.5 7.5 0 0010.606-.001zm62.89-139.583v-12.249c0-4.143-3.357-7.5-7.5-7.5s-7.5 3.357-7.5 7.5v12.249c0 4.143 3.357 7.5 7.5 7.5s7.5-3.358 7.5-7.5zm-15 147.171v12.249c0 4.143 3.357 7.5 7.5 7.5s7.5-3.357 7.5-7.5v-12.249c0-4.143-3.357-7.5-7.5-7.5s-7.5 3.357-7.5 7.5zM352.73 216.941a7.501 7.501 0 0010.607-10.607l-8.661-8.661a7.5 7.5 0 00-10.607 10.607zm112.728 112.728a7.501 7.501 0 0010.607-10.607l-8.662-8.662a7.5 7.5 0 00-10.607 10.607zm-5.956-44.92a7.5 7.5 0 00-3.953-9.842 7.5 7.5 0 00-9.842 3.953 38.702 38.702 0 01-35.64 23.543c-21.357 0-38.732-17.375-38.732-38.732s17.375-38.732 38.732-38.732c16.046 0 30.201 9.658 36.062 24.604a7.501 7.501 0 0013.965-5.477c-8.131-20.731-27.768-34.128-50.027-34.128-29.628 0-53.732 24.104-53.732 53.732s24.104 53.732 53.732 53.732a53.679 53.679 0 0049.435-32.653z"></path>
  </symbol>
  <symbol xmlns="http://www.w3.org/2000/svg" viewBox="0 0 510.732 510.732" id="beach">
    <path d="M334.132 59.828c0-18.076-14.706-32.782-32.782-32.782h-90.969c-18.076 0-32.782 14.706-32.782 32.782v43.938h30V59.828a2.785 2.785 0 012.782-2.782h90.969a2.785 2.785 0 012.782 2.782v43.938h30z" fill="#fbc56d"></path>
    <path d="M401.629 121.174h36.142V94.747c0-6.29-5.099-11.39-11.39-11.39h-13.362c-6.29 0-11.39 5.099-11.39 11.39zm-111.8 1h58.607V94.747c0-6.29-5.099-11.39-11.39-11.39h-35.827c-6.29 0-11.39 5.099-11.39 11.39zm-67.926 2h-58.607V94.747c0-6.29 5.099-11.39 11.39-11.39h35.827c6.29 0 11.39 5.099 11.39 11.39zm-111.799 3H73.962V94.747c0-6.29 5.099-11.39 11.39-11.39h13.362c6.29 0 11.39 5.099 11.39 11.39z" fill="#fef056"></path>
    <path d="M503.236 154.678v286.51c0 23.47-19.03 42.5-42.51 42.5H50.006c-23.48 0-42.51-19.03-42.51-42.5v-286.51c0-23.48 19.03-42.5 42.51-42.5h410.72c23.48 0 42.51 19.02 42.51 42.5z" fill="#fdd79b"></path>
    <path d="M99.496 441.188v-286.51c0-23.48 19.03-42.5 42.51-42.5h-92c-23.48 0-42.51 19.02-42.51 42.5v286.51c0 23.47 19.03 42.5 42.51 42.5h92c-23.48 0-42.51-19.03-42.51-42.5z" fill="#fccd7f"></path>
    <path d="M191.998 399.596a7.516 7.516 0 004.561-9.6l-15.136-42.536a7.516 7.516 0 00-9.6-4.561l-110 39.143a7.516 7.516 0 00-4.561 9.6l15.136 42.536a7.516 7.516 0 009.6 4.561z" fill="#f47c7c"></path>
    <path d="M61.823 382.042a7.516 7.516 0 00-4.561 9.6l15.136 42.536a7.516 7.516 0 009.6 4.561l17.499-6.227v-63.875z" fill="#ee6161"></path>
    <path d="M110.854 112.174h32.112v371.513h-32.112z" fill="#fbc56d"></path>
    <path d="M152.064 305.161h-50.308c-15.321 0-27.74-12.42-27.74-27.74v-36.98c0-15.321 12.42-27.74 27.74-27.74h50.308c15.321 0 27.74 12.42 27.74 27.74v36.98c.001 15.32-12.419 27.74-27.74 27.74z" fill="#fef48b"></path>
    <path d="M368.766 112.174h32.112v371.513h-32.112z" fill="#fbc56d"></path>
    <path d="M359.668 305.161h50.308c15.321 0 27.74-12.42 27.74-27.74v-36.98c0-15.321-12.42-27.74-27.74-27.74h-50.308c-15.321 0-27.74 12.42-27.74 27.74v36.98c0 15.32 12.42 27.74 27.74 27.74z" fill="#fef48b"></path>
    <g fill="#fef056">
      <path d="M118.7 277.42v-36.98c0-15.321 12.42-27.74 27.74-27.74h-44.684c-15.321 0-27.74 12.42-27.74 27.74v36.98c0 15.321 12.42 27.74 27.74 27.74h44.684c-15.32.001-27.74-12.419-27.74-27.74zm257.912 0v-36.98c0-15.321 12.42-27.74 27.74-27.74h-44.684c-15.321 0-27.74 12.42-27.74 27.74v36.98c0 15.321 12.42 27.74 27.74 27.74h44.684c-15.32.001-27.74-12.419-27.74-27.74z"></path>
      <path d="M407.716 274.379v-30.898a.78.78 0 00-.781-.781h-44.226a.78.78 0 00-.781.781v30.898c0 .432.35.781.781.781h44.226a.78.78 0 00.781-.781z"></path>
    </g>
    <path d="M362.657 242.7a.73.73 0 00-.729.729v31.002a.73.73 0 00.729.729h13.955V242.7z" fill="#fee903"></path>
    <path d="M249.088 154.036l-24.662 63.128c-.989 2.532 1.452 5.057 4.016 4.153l78.771-27.776c2.482-.875 2.885-4.217.681-5.656l-54.11-35.352a3.176 3.176 0 00-4.696 1.503z" fill="#f47c7c"></path>
    <circle cx="295.926" cy="399.205" fill="#ade194" r="36.976"></circle>
    <path d="M104.016 274.097v-30.334c0-.587.476-1.063 1.063-1.063h43.662c.587 0 1.063.476 1.063 1.063v30.334c0 .587-.476 1.063-1.063 1.063h-43.662a1.062 1.062 0 01-1.063-1.063z" fill="#fef056"></path>
    <path d="M105.079 242.7c-.587 0-1.063.476-1.063 1.063v30.334c0 .587.476 1.063 1.063 1.063H118.7V242.7z" fill="#fee903"></path>
    <path d="M503.232 234.218a7.5 7.5 0 007.5-7.5v-72.042c0-27.572-22.431-50.003-50.003-50.003H445.27v-9.926c0-10.416-8.474-18.89-18.89-18.89h-13.362c-10.416 0-18.89 8.474-18.89 18.89v9.926h-38.193v-9.926c0-8.832-6.101-16.246-14.304-18.304V59.828c0-22.211-18.07-40.282-40.282-40.282h-30.003a7.5 7.5 0 000 15h30.003c13.94 0 25.282 11.341 25.282 25.282v16.03h-15v-16.03c0-5.669-4.612-10.282-10.282-10.282H210.38c-5.669 0-10.282 4.612-10.282 10.282v16.03h-15v-16.03c0-13.94 11.341-25.282 25.282-25.282h29.003a7.5 7.5 0 000-15H210.38c-22.211 0-40.282 18.07-40.282 40.282v16.616c-8.203 2.058-14.304 9.472-14.304 18.304v9.926h-38.193v-9.926c0-10.416-8.474-18.89-18.89-18.89H85.352c-10.416 0-18.89 8.474-18.89 18.89v9.926H50.003C22.431 104.674 0 127.105 0 154.677v286.507c0 27.572 22.431 50.003 50.003 50.003H460.73c27.572 0 50.003-22.431 50.003-50.003V258.681a7.5 7.5 0 00-15 0v182.503c0 19.301-15.702 35.003-35.003 35.003h-52.351V312.661h1.598c19.432 0 35.24-15.809 35.24-35.24v-36.98c0-19.432-15.809-35.241-35.24-35.241h-1.598v-85.526h52.351c19.301 0 35.003 15.702 35.003 35.003v72.042a7.498 7.498 0 007.499 7.499zM359.668 205.2c-19.432 0-35.24 15.809-35.24 35.241v36.98c0 19.432 15.809 35.24 35.24 35.24h1.598v163.526H150.467v-53.851l44.046-15.673c7.8-2.776 11.887-11.38 9.112-19.18l-15.136-42.536c-2.775-7.8-11.379-11.888-19.18-9.112l-18.842 6.705v-29.878h1.598c19.432 0 35.24-15.809 35.24-35.24v-36.98c0-19.432-15.809-35.241-35.24-35.241h-1.598v-85.526h210.799v85.526h-1.598zM103.354 423.176l-23.891 8.488-15.127-42.555 39.018-13.884zm-1.598-125.515c-11.161 0-20.24-9.08-20.24-20.24v-36.98c0-11.161 9.08-20.241 20.24-20.241h50.308c11.161 0 20.24 9.08 20.24 20.241v36.98c0 11.161-9.08 20.24-20.24 20.24zm48.711 60.802l23.891-8.487 15.126 42.555-39.017 13.884zm146.862-253.789v-9.926a3.894 3.894 0 013.89-3.89h35.827a3.894 3.894 0 013.89 3.89v9.926zm-.697-40.128v11.898c-8.203 2.058-14.303 9.472-14.303 18.304v9.926h-52.926v-9.926c0-8.832-6.101-16.246-14.303-18.304V64.546zM170.796 94.748a3.894 3.894 0 013.89-3.89h35.827a3.894 3.894 0 013.89 3.89v9.926h-43.607zm-89.334 0a3.894 3.894 0 013.89-3.89h13.362a3.894 3.894 0 013.89 3.89v9.926H81.462zM15 441.184V154.677c0-19.301 15.702-35.003 35.003-35.003h53.351v26.62a7.5 7.5 0 0015 0v-26.62h17.113V205.2h-17.113v-26.943a7.5 7.5 0 00-15 0V205.2h-1.598c-19.432 0-35.24 15.809-35.24 35.241v36.98c0 19.432 15.809 35.24 35.24 35.24h1.598v46.643l-44.045 15.673c-3.779 1.344-6.808 4.08-8.529 7.703s-1.928 7.699-.583 11.477l15.136 42.536a14.921 14.921 0 007.703 8.528 14.97 14.97 0 006.433 1.46c1.696 0 3.399-.292 5.044-.877l18.843-6.705v37.087H50.003C30.702 476.187 15 460.484 15 441.184zm103.354 35.003V312.661h17.113v163.526zm275.024 0h-17.113V312.661h17.113zm36.838-235.747v36.98c0 11.161-9.08 20.24-20.24 20.24h-50.308c-11.161 0-20.24-9.08-20.24-20.24v-36.98c0-11.161 9.08-20.241 20.24-20.241h50.308c11.161.001 20.24 9.081 20.24 20.241zm-53.95-35.24v-85.526h17.112V205.2zm32.863-100.526v-9.926a3.894 3.894 0 013.89-3.89h13.362a3.894 3.894 0 013.89 3.89v9.926z"></path>
    <path d="M157.305 275.161V242.7a7.5 7.5 0 00-7.5-7.5h-45.789a7.5 7.5 0 00-7.5 7.5v32.461a7.5 7.5 0 007.5 7.5h45.789a7.5 7.5 0 007.5-7.5zm-15-7.5h-30.789V250.2h30.789zM354.428 242.7v32.461a7.5 7.5 0 007.5 7.5h45.789a7.5 7.5 0 007.5-7.5V242.7a7.5 7.5 0 00-7.5-7.5h-45.789a7.5 7.5 0 00-7.5 7.5zm15 7.5h30.789v17.461h-30.789zm-52.67-58.38a10.61 10.61 0 00-4.761-10.214l-54.109-35.351c-2.704-1.767-6.019-2.215-9.095-1.231s-5.515 3.274-6.69 6.283v.001l-24.662 63.128c-1.538 3.937-.668 8.269 2.27 11.308 2.063 2.134 4.8 3.27 7.627 3.27 1.198 0 2.413-.204 3.599-.622l78.771-27.776a10.618 10.618 0 007.05-8.796zm-81.913 19.286l19.293-49.385 42.33 27.655zm16.605 188.1c0 24.524 19.952 44.477 44.477 44.477s44.477-19.952 44.477-44.477-19.952-44.477-44.477-44.477-44.477 19.952-44.477 44.477zm73.953 0c0 16.253-13.223 29.477-29.477 29.477s-29.477-13.223-29.477-29.477 13.223-29.477 29.477-29.477 29.477 13.223 29.477 29.477z"></path>
  </symbol>
  <symbol xmlns="http://www.w3.org/2000/svg" viewBox="0 0 469.168 469.168" id="check">
    <path d="M241.127 8.008c-10.592 0-20.328 7.088-23.184 17.792l-95.248 355.456c-3.424 12.784 4.184 25.968 16.968 29.4l185.472 49.696c12.672 3.416 25.968-4.192 29.376-16.976l95.24-355.464c3.424-12.784-4.184-25.968-16.952-29.392L247.319 8.824a23.95 23.95 0 00-6.192-.816z" fill="#f5f9ec"></path>
    <path d="M414.151 220.776L291.327 97.952h-92.72l-75.912 283.304c-3.424 12.784 4.184 25.968 16.968 29.4l185.472 49.696c12.672 3.416 25.968-4.192 29.376-16.976l59.64-222.6z" fill="#e4e8db"></path>
    <path d="M176.527 180.344l231.816 62.112 41.416-154.552c3.424-12.784-4.184-25.968-16.952-29.392L247.319 8.824a23.934 23.934 0 00-6.184-.816c-10.592 0-20.328 7.088-23.184 17.792l-41.424 154.544z" fill="#dcc69f"></path>
    <path fill="#cdb994" d="M176.527 180.344l231.816 62.112 5.808-21.68L291.327 97.952h-92.72z"></path>
    <path d="M155.119 414.792L262.783 12.968l-15.472-4.144a23.934 23.934 0 00-6.184-.816c-10.592 0-20.328 7.088-23.184 17.792l-95.248 355.456c-3.424 12.784 4.184 25.968 16.968 29.4l15.456 4.136z" fill="#ea672c"></path>
    <path d="M26.583 430.152c-4.408 0-8-3.584-8-8v-320c0-4.416 3.592-8 8-8h240c13.232 0 24 10.768 24 24v288c0 13.232-10.768 24-24 24h-240z" fill="#125d9d"></path>
    <path d="M154.583 134.152c-53.016 0-96 42.984-96 96s42.984 96 96 96 96-42.984 96-96-42.976-96-96-96zm71.048 60h-34.6c-3.312-16.584-8.48-29.984-13.752-40.32a79.872 79.872 0 0148.352 40.32zm-47.048 36c0 7.144-.536 13.704-1.272 20h-45.456c-.736-6.296-1.272-12.856-1.272-20s.528-13.704 1.256-20h45.488c.728 6.296 1.256 12.856 1.256 20zm-44.072-36c4.44-20.048 11.768-34.616 17.744-43.768.792-.024 1.528-.232 2.328-.232.808 0 1.552.216 2.352.24 6 9.208 13.304 23.784 17.728 43.76h-40.152zm-2.624-40.32c-5.256 10.32-10.432 23.736-13.744 40.32H83.535a79.872 79.872 0 0148.352-40.32zm-54.464 56.32h38.296c-.672 6.336-1.136 12.928-1.136 20 0 7.08.48 13.664 1.16 20h-38.32c-1.672-6.432-2.84-13.056-2.84-20s1.168-13.568 2.84-20zm6.112 56h34.648c3.344 16.616 8.52 30.136 13.68 40.312-21.128-6.312-38.472-20.968-48.328-40.312zm68.72 43.768c-5.736-8.824-13.2-23.424-17.728-43.768h40.112c-4.52 20.328-11.976 34.928-17.728 43.768-.792.024-1.528.232-2.328.232s-1.536-.208-2.328-.232zm25.056-3.456c5.168-10.192 10.336-23.696 13.672-40.312h34.648c-9.856 19.344-27.192 34-48.32 40.312zm54.432-56.312h-38.312c.672-6.336 1.152-12.92 1.152-20 0-7.072-.464-13.664-1.128-20h38.288c1.672 6.432 2.84 13.056 2.84 20s-1.168 13.568-2.84 20z" fill="#e7be29"></path>
    <path fill="#fff" d="M74.583 374.152h160v16h-160z"></path>
    <g fill="#010101">
      <path d="M361.427 263.025l-8.284 30.908-15.455-4.142 8.285-30.909zm-16.562 61.77l-28.984 108.178-15.455-4.141 28.985-108.178z"></path>
      <path d="M434.855 50.792L249.399 1.096A32.02 32.02 0 00241.095 0c-14.128 0-27.056 9.432-30.888 23.728l-16.728 62.424H26.583c-8.832 0-16 7.16-16 16v320c0 8.84 7.168 16 16 16h184.8l111.664 29.92a32.02 32.02 0 008.304 1.096c14.128 0 27.056-9.432 30.888-23.728l95.248-355.464c4.576-17.064-5.56-34.608-22.632-39.184zm-408.272 51.36h240c8.824 0 16 7.176 16 16v288c0 8.824-7.176 16-16 16h-240v-320zM442.031 85.84l-95.248 355.464c-1.872 6.992-8.224 11.872-15.44 11.872-1.392 0-2.792-.184-4.16-.552l-55.792-14.952c15.376-2.344 27.192-15.496 27.192-31.52v-126.84l8.192 2.2 8.288-30.912-15.456-4.144-1.024 3.824V123.128l16.328 4.376 18.92 61.864 13.248 3.552-1.256-57.128c8.696 2.336 17.584 4.712 23.4 6.272l10.288 18.136 8.832 2.368-1.52-25.256 13.944-21.112-8.832-2.368-17.976 10.568c-5.824-1.56-14.704-3.936-23.408-6.272l29.648-48.848-13.248-3.552-47.32 44.112c-9.304-2.496-19.456-5.216-24.96-6.688-5.376-10.064-15.872-17-28.088-17h-56.536l15.616-58.288c1.872-6.984 8.224-11.864 15.44-11.872 1.392 0 2.792.184 4.16.552L430.719 66.24a15.87 15.87 0 019.712 7.456c2.136 3.712 2.704 8.016 1.6 12.144z"></path>
      <path d="M357.019 220.605l-4.093 15.467-15.204-4.023 4.092-15.467zm30.402 8.051l-4.092 15.467-15.205-4.023 4.093-15.467zm-60.783-16.064l-4.093 15.468-15.204-4.024 4.093-15.467z"></path>
    </g>
  </symbol>
</svg>